<svg xmlns="http://www.w3.org/2000/svg" width="1280" height="580" viewBox="0 0 1280 580" role="img" aria-label="UCM Control Kit: AI agents and voice controlling a Grandstream phone system across branches">
  <defs>
    <radialGradient id="glow" cx="50%" cy="58%" r="45%"><stop offset="0" stop-color="#2F6BFF" stop-opacity=".28"/><stop offset="1" stop-color="#2F6BFF" stop-opacity="0"/></radialGradient>
    <linearGradient id="core" x1="0" y1="0" x2="1" y2="1"><stop offset="0" stop-color="#2F6BFF"/><stop offset="1" stop-color="#0FA888"/></linearGradient>
    <pattern id="grid" width="32" height="32" patternUnits="userSpaceOnUse"><path d="M32 0H0V32" fill="none" stroke="#DCE3F2" stroke-width="1" opacity=".5"/></pattern>
  </defs>
  <rect width="1280" height="580" rx="24" fill="#F6F8FD"/>
  <rect width="1280" height="580" rx="24" fill="url(#grid)" opacity=".6"/>
  <rect width="1280" height="580" fill="url(#glow)"/>
  <text x="64" y="78" font-family="Inter, Segoe UI, system-ui, -apple-system, sans-serif" font-size="44" font-weight="800" fill="#0E1630" letter-spacing="-1">UCM Control Kit</text>
  <text x="64" y="112" font-family="Inter, Segoe UI, system-ui, -apple-system, sans-serif" font-size="19" fill="#56627F">Audit, monitor, repair and voice-control Grandstream phone systems from any AI agent</text>
  
    <g transform="translate(300,190)">
      <line x1="0" y1="0" x2="340" y2="110" stroke="#2F6BFF" stroke-width="2" stroke-dasharray="0" opacity=".55"/>
      <rect x="-70" y="-24" width="140" height="48" rx="12" fill="#FFFFFF" stroke="#DCE3F2"/>
      <circle cx="-48" cy="0" r="6" fill="#0FA888"/>
      <text x="-34" y="-2" font-family="Inter, Segoe UI, system-ui, -apple-system, sans-serif" font-size="14" font-weight="600" fill="#0E1630">Branch A</text>
      <text x="-34" y="14" font-family="Inter, Segoe UI, system-ui, -apple-system, sans-serif" font-size="11" fill="#56627F">registered</text>
    </g>
    <g transform="translate(250,300)">
      <line x1="0" y1="0" x2="390" y2="0" stroke="#2F6BFF" stroke-width="2" stroke-dasharray="0" opacity=".55"/>
      <rect x="-70" y="-24" width="140" height="48" rx="12" fill="#FFFFFF" stroke="#DCE3F2"/>
      <circle cx="-48" cy="0" r="6" fill="#0FA888"/>
      <text x="-34" y="-2" font-family="Inter, Segoe UI, system-ui, -apple-system, sans-serif" font-size="14" font-weight="600" fill="#0E1630">Branch B</text>
      <text x="-34" y="14" font-family="Inter, Segoe UI, system-ui, -apple-system, sans-serif" font-size="11" fill="#56627F">registered</text>
    </g>
    <g transform="translate(300,410)">
      <line x1="0" y1="0" x2="340" y2="-110" stroke="#D93448" stroke-width="2" stroke-dasharray="6 6" opacity=".55"/>
      <rect x="-70" y="-24" width="140" height="48" rx="12" fill="#FFFFFF" stroke="#DCE3F2"/>
      <circle cx="-48" cy="0" r="6" fill="#D93448"/>
      <text x="-34" y="-2" font-family="Inter, Segoe UI, system-ui, -apple-system, sans-serif" font-size="14" font-weight="600" fill="#0E1630">Branch C</text>
      <text x="-34" y="14" font-family="Inter, Segoe UI, system-ui, -apple-system, sans-serif" font-size="11" fill="#56627F">offline · fix ready</text>
    </g>
    <g transform="translate(980,190)">
      <line x1="0" y1="0" x2="-340" y2="110" stroke="#2F6BFF" stroke-width="2" stroke-dasharray="0" opacity=".55"/>
      <rect x="-70" y="-24" width="140" height="48" rx="12" fill="#FFFFFF" stroke="#DCE3F2"/>
      <circle cx="-48" cy="0" r="6" fill="#0FA888"/>
      <text x="-34" y="-2" font-family="Inter, Segoe UI, system-ui, -apple-system, sans-serif" font-size="14" font-weight="600" fill="#0E1630">Branch D</text>
      <text x="-34" y="14" font-family="Inter, Segoe UI, system-ui, -apple-system, sans-serif" font-size="11" fill="#56627F">registered</text>
    </g>
    <g transform="translate(1030,300)">
      <line x1="0" y1="0" x2="-390" y2="0" stroke="#2F6BFF" stroke-width="2" stroke-dasharray="0" opacity=".55"/>
      <rect x="-70" y="-24" width="140" height="48" rx="12" fill="#FFFFFF" stroke="#DCE3F2"/>
      <circle cx="-48" cy="0" r="6" fill="#0FA888"/>
      <text x="-34" y="-2" font-family="Inter, Segoe UI, system-ui, -apple-system, sans-serif" font-size="14" font-weight="600" fill="#0E1630">Branch E</text>
      <text x="-34" y="14" font-family="Inter, Segoe UI, system-ui, -apple-system, sans-serif" font-size="11" fill="#56627F">registered</text>
    </g>
    <g transform="translate(980,410)">
      <line x1="0" y1="0" x2="-340" y2="-110" stroke="#2F6BFF" stroke-width="2" stroke-dasharray="0" opacity=".55"/>
      <rect x="-70" y="-24" width="140" height="48" rx="12" fill="#FFFFFF" stroke="#DCE3F2"/>
      <circle cx="-48" cy="0" r="6" fill="#0FA888"/>
      <text x="-34" y="-2" font-family="Inter, Segoe UI, system-ui, -apple-system, sans-serif" font-size="14" font-weight="600" fill="#0E1630">Warehouse</text>
      <text x="-34" y="14" font-family="Inter, Segoe UI, system-ui, -apple-system, sans-serif" font-size="11" fill="#56627F">registered</text>
    </g>
  <g transform="translate(640,300)">
    <circle r="86" fill="#FFFFFF" stroke="url(#core)" stroke-width="3"/>
    <circle r="100" fill="none" stroke="#2F6BFF" stroke-opacity=".25" stroke-dasharray="3 7"/>
    <rect x="-44" y="-30" width="88" height="44" rx="8" fill="none" stroke="#0E1630" stroke-width="2.5"/>
    <g fill="#0FA888"><rect x="-34" y="-20" width="9" height="6" rx="2"/><rect x="-19" y="-20" width="9" height="6" rx="2"/><rect x="-4" y="-20" width="9" height="6" rx="2"/><rect x="11" y="-20" width="9" height="6" rx="2"/><rect x="26" y="-20" width="9" height="6" rx="2"/></g>
    <g fill="#56627F"><rect x="-34" y="-8" width="9" height="12" rx="2"/><rect x="-19" y="-8" width="9" height="12" rx="2"/><rect x="-4" y="-8" width="9" height="12" rx="2"/><rect x="11" y="-8" width="9" height="12" rx="2"/><rect x="26" y="-8" width="9" height="12" rx="2"/></g>
    <text y="40" text-anchor="middle" font-family="Inter, Segoe UI, system-ui, -apple-system, sans-serif" font-size="15" font-weight="700" fill="#0E1630">UCM PBX</text>
    <text y="58" text-anchor="middle" font-family="Inter, Segoe UI, system-ui, -apple-system, sans-serif" font-size="11" fill="#56627F">HTTPS API · :8089</text>
  </g>
  <g transform="translate(286,528)">
    <g transform="translate(0,0)">
      <line x1="52" y1="0" x2="354" y2="-128" stroke="#0FA888" stroke-opacity=".35" stroke-width="1.5"/>
      <rect x="0" y="-18" width="104" height="36" rx="18" fill="#FFFFFF" stroke="#DCE3F2"/>
      <text x="52" y="5" text-anchor="middle" font-family="Inter, Segoe UI, system-ui, -apple-system, sans-serif" font-size="13" font-weight="600" fill="#0E1630">Claude</text></g><g transform="translate(118,0)">
      <line x1="52" y1="0" x2="236" y2="-128" stroke="#0FA888" stroke-opacity=".35" stroke-width="1.5"/>
      <rect x="0" y="-18" width="104" height="36" rx="18" fill="#FFFFFF" stroke="#DCE3F2"/>
      <text x="52" y="5" text-anchor="middle" font-family="Inter, Segoe UI, system-ui, -apple-system, sans-serif" font-size="13" font-weight="600" fill="#0E1630">Cursor</text></g><g transform="translate(236,0)">
      <line x1="52" y1="0" x2="118" y2="-128" stroke="#0FA888" stroke-opacity=".35" stroke-width="1.5"/>
      <rect x="0" y="-18" width="104" height="36" rx="18" fill="#FFFFFF" stroke="#DCE3F2"/>
      <text x="52" y="5" text-anchor="middle" font-family="Inter, Segoe UI, system-ui, -apple-system, sans-serif" font-size="13" font-weight="600" fill="#0E1630">ChatGPT</text></g><g transform="translate(354,0)">
      <line x1="52" y1="0" x2="0" y2="-128" stroke="#0FA888" stroke-opacity=".35" stroke-width="1.5"/>
      <rect x="0" y="-18" width="104" height="36" rx="18" fill="#FFFFFF" stroke="#DCE3F2"/>
      <text x="52" y="5" text-anchor="middle" font-family="Inter, Segoe UI, system-ui, -apple-system, sans-serif" font-size="13" font-weight="600" fill="#0E1630">Gemini</text></g><g transform="translate(472,0)">
      <line x1="52" y1="0" x2="-118" y2="-128" stroke="#0FA888" stroke-opacity=".35" stroke-width="1.5"/>
      <rect x="0" y="-18" width="104" height="36" rx="18" fill="#FFFFFF" stroke="#DCE3F2"/>
      <text x="52" y="5" text-anchor="middle" font-family="Inter, Segoe UI, system-ui, -apple-system, sans-serif" font-size="13" font-weight="600" fill="#0E1630">🎙 Voice</text></g><g transform="translate(590,0)">
      <line x1="52" y1="0" x2="-236" y2="-128" stroke="#0FA888" stroke-opacity=".35" stroke-width="1.5"/>
      <rect x="0" y="-18" width="104" height="36" rx="18" fill="#FFFFFF" stroke="#DCE3F2"/>
      <text x="52" y="5" text-anchor="middle" font-family="Inter, Segoe UI, system-ui, -apple-system, sans-serif" font-size="13" font-weight="600" fill="#0E1630">CLI</text></g>
  </g>
  <g transform="translate(1216,70)" text-anchor="end">
    <text font-family="Inter, Segoe UI, system-ui, -apple-system, sans-serif" font-size="12" fill="#56627F">MCP server · Agent Skill · CLI · Voice</text>
    <text y="20" font-family="Inter, Segoe UI, system-ui, -apple-system, sans-serif" font-size="12" fill="#56627F">Tested: UCM6304 · fw 1.0.33.30</text>
  </g>
</svg>